<?xml version="1.0" standalone="no"?>
<!DOCTYPE svg PUBLIC "-//W3C//DTD SVG 20010904//EN"
 "http://www.w3.org/TR/2001/REC-SVG-20010904/DTD/svg10.dtd">
<svg version="1.0" xmlns="http://www.w3.org/2000/svg"
 width="158.000000pt" height="158.000000pt" viewBox="0 0 158.000000 158.000000"
 preserveAspectRatio="xMidYMid meet">

<g transform="translate(0.000000,158.000000) scale(0.100000,-0.100000)"
fill="#000000" stroke="none">
<path d="M597 1510 c-65 -11 -136 -49 -161 -83 -17 -23 -21 -43 -21 -115 l0
-87 158 -3 c149 -2 157 -4 157 -22 0 -19 -8 -20 -213 -20 -228 0 -278 -7 -341
-51 -71 -49 -109 -151 -110 -299 -1 -118 18 -205 58 -272 46 -77 80 -93 196
-93 l95 0 6 110 c5 97 9 115 32 151 50 75 64 78 312 84 248 6 261 9 313 84
l27 39 3 216 3 216 -30 46 c-21 35 -44 54 -86 74 -53 26 -66 28 -203 31 -81 2
-169 -1 -195 -6z m17 -101 c45 -36 23 -109 -33 -109 -61 0 -85 90 -31 117 33
17 33 16 64 -8z"/>
</g>
</svg>
