<?xml version="1.0" standalone="no"?>
<!DOCTYPE svg PUBLIC "-//W3C//DTD SVG 20010904//EN"
 "http://www.w3.org/TR/2001/REC-SVG-20010904/DTD/svg10.dtd">
<svg version="1.0" xmlns="http://www.w3.org/2000/svg"
 width="100.000000pt" height="98.000000pt" viewBox="0 0 100.000000 98.000000"
 preserveAspectRatio="xMidYMid meet">

<g transform="translate(0.000000,98.000000) scale(0.100000,-0.100000)"
fill="#000000" stroke="none">
<path d="M105 961 c-48 -22 -69 -44 -90 -94 -12 -30 -15 -93 -15 -379 0 -311
2 -347 19 -383 22 -48 44 -69 94 -90 54 -22 720 -22 774 0 50 21 72 42 94 90
17 36 19 71 19 385 0 314 -2 349 -19 385 -22 48 -44 69 -94 90 -30 12 -94 15
-389 15 -321 0 -357 -2 -393 -19z m317 -241 c79 -21 127 -92 113 -168 -15 -78
-78 -122 -175 -122 l-50 0 0 -70 0 -70 -40 0 -40 0 0 218 0 218 74 3 c41 1 94
-3 118 -9z m372 -106 c10 -4 16 -18 16 -41 0 -34 0 -34 -37 -28 -21 4 -45 9
-54 11 -21 6 -54 -20 -44 -36 4 -7 28 -21 54 -32 70 -31 91 -54 91 -103 0 -72
-65 -113 -162 -102 -64 8 -68 11 -68 57 l0 39 35 -15 c60 -25 125 -14 112 19
-3 9 -29 26 -57 38 -59 25 -90 60 -90 101 0 39 15 64 48 82 27 15 127 21 156
10z"/>
<path d="M312 578 l3 -73 47 1 c58 0 88 24 88 68 0 17 -4 36 -8 42 -13 20 -50
34 -92 34 l-41 0 3 -72z"/>
</g>
</svg>
