<?xml version="1.0" standalone="no"?>
<!DOCTYPE svg PUBLIC "-//W3C//DTD SVG 20010904//EN"
 "http://www.w3.org/TR/2001/REC-SVG-20010904/DTD/svg10.dtd">
<svg version="1.0" xmlns="http://www.w3.org/2000/svg"
 width="100.000000pt" height="98.000000pt" viewBox="0 0 100.000000 98.000000"
 preserveAspectRatio="xMidYMid meet">

<g transform="translate(0.000000,98.000000) scale(0.100000,-0.100000)"
fill="#000000" stroke="none">
<path d="M105 961 c-48 -22 -69 -44 -90 -94 -22 -54 -22 -700 0 -754 20 -48
41 -71 88 -94 35 -19 59 -20 411 -17 l373 3 36 28 c21 16 46 46 57 67 19 37
20 59 20 390 0 324 -1 354 -19 388 -23 46 -46 67 -94 87 -30 12 -94 15 -389
15 -321 0 -357 -2 -393 -19z m639 -217 c32 -31 8 -84 -38 -84 -30 0 -46 18
-46 52 0 43 53 64 84 32z m-205 -236 l78 -218 -48 0 -47 0 -17 50 -17 51 -81
-3 -81 -3 -15 -47 c-14 -48 -15 -48 -59 -48 -31 0 -43 4 -39 13 39 105 137
400 137 412 0 13 10 15 56 13 l56 -3 77 -217z m211 -53 l0 -165 -45 0 -45 0 0
165 0 165 45 0 45 0 0 -165z"/>
<path d="M379 565 c-15 -47 -24 -87 -21 -90 8 -8 102 -6 102 3 -1 13 -46 161
-51 166 -3 3 -16 -33 -30 -79z"/>
</g>
</svg>
